<svg width="40" height="40" viewBox="0 0 40 40" fill="none" xmlns="http://www.w3.org/2000/svg">
<path d="M20 36.6668C29.2048 36.6668 36.6667 29.2049 36.6667 20.0002C36.6667 10.7954 29.2048 3.3335 20 3.3335C10.7953 3.3335 3.33337 10.7954 3.33337 20.0002C3.33337 29.2049 10.7953 36.6668 20 36.6668Z" fill="#E3E3E3"/>
<path d="M21.7666 20.0001L25.6 16.1668C26.0833 15.6834 26.0833 14.8834 25.6 14.4001C25.1166 13.9168 24.3166 13.9168 23.8333 14.4001L20 18.2334L16.1666 14.4001C15.6833 13.9168 14.8833 13.9168 14.4 14.4001C13.9166 14.8834 13.9166 15.6834 14.4 16.1668L18.2333 20.0001L14.4 23.8334C13.9166 24.3168 13.9166 25.1168 14.4 25.6001C14.65 25.8501 14.9666 25.9668 15.2833 25.9668C15.6 25.9668 15.9166 25.8501 16.1666 25.6001L20 21.7668L23.8333 25.6001C24.0833 25.8501 24.4 25.9668 24.7166 25.9668C25.0333 25.9668 25.35 25.8501 25.6 25.6001C26.0833 25.1168 26.0833 24.3168 25.6 23.8334L21.7666 20.0001Z" fill="#60666C"/>
</svg>
