<svg width="48" height="48" viewBox="0 0 48 48" fill="none" xmlns="http://www.w3.org/2000/svg">
<path d="M19.74 11.34L12.9 15.5L9.78001 10.38C8.64001 8.49999 9.24001 6.01999 11.12 4.87999C13 3.73999 15.48 4.33996 16.62 6.21996L19.74 11.34Z" stroke="#05264A" stroke-width="2" stroke-linecap="round" stroke-linejoin="round"/>
<path d="M23.64 18.3199L17.32 22.16C13.64 24.4 12.52 28.92 14.3 32.52L18.4 40.88C19.72 43.58 22.92 44.5199 25.48 42.9399L38.34 35.12C40.92 33.56 41.54 30.3 39.76 27.88L34.22 20.4C31.82 17.16 27.32 16.0799 23.64 18.3199Z" stroke="#05264A" stroke-width="2" stroke-linecap="round" stroke-linejoin="round"/>
<path d="M21.5134 10.1958L11.2642 16.437L15.425 23.2698L25.6742 17.0286L21.5134 10.1958Z" stroke="#05264A" stroke-width="2" stroke-linecap="round" stroke-linejoin="round"/>
<path d="M28.62 33.6201L31.92 39.0402" stroke="#05264A" stroke-width="2" stroke-linecap="round" stroke-linejoin="round"/>
<path d="M23.5 36.74L26.8 42.16" stroke="#05264A" stroke-width="2" stroke-linecap="round" stroke-linejoin="round"/>
<path d="M33.74 30.5L37.04 35.92" stroke="#05264A" stroke-width="2" stroke-linecap="round" stroke-linejoin="round"/>
</svg>
