<svg width="48" height="48" viewBox="0 0 48 48" fill="none" xmlns="http://www.w3.org/2000/svg">
<path d="M20 9V36C20 38.16 19.12 40.14 17.72 41.58L17.64 41.66C17.46 41.84 17.26 42.02 17.08 42.16C16.48 42.68 15.8 43.08 15.1 43.36C14.88 43.46 14.66 43.54 14.44 43.62C13.66 43.88 12.82 44 12 44C11.46 44 10.92 43.94 10.4 43.84C10.14 43.78 9.88 43.72 9.62 43.64C9.3 43.54 9.00001 43.44 8.70001 43.3C8.70001 43.28 8.69999 43.28 8.67999 43.3C8.11999 43.02 7.58002 42.7 7.08002 42.32L7.06 42.3C6.8 42.1 6.56003 41.9 6.34003 41.66C6.12003 41.42 5.89999 41.18 5.67999 40.92C5.29999 40.42 4.98001 39.88 4.70001 39.32C4.72001 39.3 4.72001 39.3 4.70001 39.3C4.70001 39.3 4.69999 39.28 4.67999 39.26C4.55999 38.98 4.45999 38.68 4.35999 38.38C4.27999 38.12 4.21997 37.86 4.15997 37.6C4.05997 37.08 4 36.54 4 36V9C4 6 6 4 9 4H15C18 4 20 6 20 9Z" stroke="#05264A" stroke-width="2" stroke-linecap="round" stroke-linejoin="round"/>
<path d="M44 33V39C44 42 42 44 39 44H12C12.82 44 13.66 43.88 14.44 43.62C14.66 43.54 14.88 43.46 15.1 43.36C15.8 43.08 16.48 42.68 17.08 42.16C17.26 42.02 17.46 41.84 17.64 41.66L17.72 41.58L31.32 28H39C42 28 44 30 44 33Z" stroke="#05264A" stroke-width="2" stroke-linecap="round" stroke-linejoin="round"/>
<path d="M9.62 43.6399C8.42 43.2799 7.28003 42.6199 6.34003 41.6599C5.38003 40.7199 4.71999 39.5799 4.35999 38.3799C5.13999 40.8799 7.12 42.8599 9.62 43.6399Z" stroke="#05264A" stroke-width="2" stroke-linecap="round" stroke-linejoin="round"/>
<path d="M36.74 22.5799L31.32 27.9999L17.72 41.5799C19.12 40.1399 20 38.1599 20 35.9999V16.6799L25.42 11.2599C27.54 9.13992 30.38 9.13992 32.5 11.2599L36.74 15.4999C38.86 17.6199 38.86 20.4599 36.74 22.5799Z" stroke="#05264A" stroke-width="2" stroke-linecap="round" stroke-linejoin="round"/>
<path d="M12 38C13.1046 38 14 37.1046 14 36C14 34.8954 13.1046 34 12 34C10.8954 34 10 34.8954 10 36C10 37.1046 10.8954 38 12 38Z" stroke="#05264A" stroke-width="2" stroke-linecap="round" stroke-linejoin="round"/>
</svg>
