<svg width="48" height="48" viewBox="0 0 48 48" fill="none" xmlns="http://www.w3.org/2000/svg">
<path d="M20.98 4.46012L11 8.20012C8.7 9.06012 6.82001 11.7801 6.82001 14.2401V29.1001C6.82001 31.4601 8.38003 34.5601 10.28 35.9801L18.88 42.4001C21.7 44.5201 26.34 44.5201 29.16 42.4001L37.76 35.9801C39.66 34.5601 41.22 31.4601 41.22 29.1001V14.2401C41.22 11.7801 39.34 9.06012 37.04 8.20012L27.06 4.46012C25.36 3.84012 22.64 3.84012 20.98 4.46012Z" stroke="#05264A" stroke-width="2" stroke-linecap="round" stroke-linejoin="round"/>
<path d="M24 31C28.4183 31 32 27.4183 32 23C32 18.5817 28.4183 15 24 15C19.5817 15 16 18.5817 16 23C16 27.4183 19.5817 31 24 31Z" stroke="#05264A" stroke-width="2" stroke-miterlimit="10" stroke-linecap="round" stroke-linejoin="round"/>
<path d="M24.5 20.5V22.36C24.5 23.06 24.14 23.72 23.52 24.08L22 25" stroke="#05264A" stroke-width="2" stroke-miterlimit="10" stroke-linecap="round" stroke-linejoin="round"/>
</svg>
