<svg width="40" height="40" viewBox="0 0 40 40" fill="none" xmlns="http://www.w3.org/2000/svg">
<path d="M20 36.6668C29.2048 36.6668 36.6667 29.2049 36.6667 20.0002C36.6667 10.7954 29.2048 3.3335 20 3.3335C10.7953 3.3335 3.33337 10.7954 3.33337 20.0002C3.33337 29.2049 10.7953 36.6668 20 36.6668Z" fill="#05264A"/>
<path d="M17.6333 25.9668C17.2999 25.9668 16.9833 25.8335 16.7499 25.6002L12.0333 20.8835C11.5499 20.4002 11.5499 19.6002 12.0333 19.1168C12.5166 18.6335 13.3166 18.6335 13.7999 19.1168L17.6333 22.9502L26.1999 14.3835C26.6833 13.9002 27.4833 13.9002 27.9666 14.3835C28.4499 14.8668 28.4499 15.6668 27.9666 16.1502L18.5166 25.6002C18.2833 25.8335 17.9666 25.9668 17.6333 25.9668Z" fill="white"/>
</svg>
