<svg width="40" height="40" viewBox="0 0 40 40" fill="none" xmlns="http://www.w3.org/2000/svg">
<path d="M20 36.6668C29.2047 36.6668 36.6666 29.2049 36.6666 20.0002C36.6666 10.7954 29.2047 3.3335 20 3.3335C10.7952 3.3335 3.33331 10.7954 3.33331 20.0002C3.33331 29.2049 10.7952 36.6668 20 36.6668Z" fill="white"/>
<path d="M17.6333 25.9668C17.3 25.9668 16.9833 25.8335 16.75 25.6002L12.0333 20.8835C11.55 20.4002 11.55 19.6002 12.0333 19.1168C12.5167 18.6335 13.3167 18.6335 13.8 19.1168L17.6333 22.9502L26.2 14.3835C26.6833 13.9002 27.4833 13.9002 27.9667 14.3835C28.45 14.8668 28.45 15.6668 27.9667 16.1502L18.5167 25.6002C18.2833 25.8335 17.9667 25.9668 17.6333 25.9668Z" fill="#05264A"/>
</svg>
