<svg width="207" height="207" viewBox="0 0 207 207" fill="none" xmlns="http://www.w3.org/2000/svg">
<g filter="url(#filter0_d_1_712)">
<rect x="32.9999" y="29" width="141" height="140.981" rx="70.4905" fill="url(#paint0_linear_1_712)" shape-rendering="crispEdges"/>
<rect x="34.0118" y="30.0119" width="138.976" height="138.957" rx="69.4786" stroke="url(#paint1_linear_1_712)" stroke-width="2.02375" shape-rendering="crispEdges"/>
<path d="M152.883 99.8464L160.834 100.43L160.461 105.51L159.373 105.43L159.661 101.504L157.431 101.341L157.191 104.604L156.103 104.524L156.343 101.261L153.886 101.08L153.598 105.006L152.51 104.926L152.883 99.8464Z" fill="#05264A"/>
<path d="M152.31 107.447L160.05 109.356L159.769 110.495L153.078 112.888L158.829 114.306L158.548 115.446L150.808 113.537L151.089 112.397L157.786 110.006L152.029 108.586L152.31 107.447Z" fill="#05264A"/>
<path d="M150.12 116.035L157.391 119.304L156.917 120.359L153.781 118.949L152.147 122.585L155.282 123.995L154.806 125.055L147.535 121.786L148.011 120.726L151.152 122.138L152.787 118.502L149.646 117.09L150.12 116.035Z" fill="#05264A"/>
<path d="M146.69 123.65L151.833 130.269L150.898 131.648L142.846 129.317L143.52 128.323L150.88 130.432L150.712 130.679L146.016 124.644L146.69 123.65ZM147.424 125.773L148.322 126.382L145.985 129.828L145.087 129.219L147.424 125.773Z" fill="#05264A"/>
<path d="M141.74 130.869L147.479 136.402L146.664 137.247L139.675 135.961L143.939 140.073L143.125 140.918L137.386 135.384L138.201 134.539L145.193 135.829L140.925 131.713L141.74 130.869Z" fill="#05264A"/>
<path d="M132.749 139.006C133.399 138.544 134.053 138.292 134.711 138.249C135.371 138.21 136.004 138.358 136.609 138.693C137.211 139.031 137.75 139.535 138.227 140.206C138.704 140.877 139.003 141.552 139.124 142.231C139.241 142.913 139.172 143.558 138.916 144.165C138.662 144.776 138.21 145.312 137.56 145.774C136.811 146.307 136.056 146.558 135.297 146.527C134.534 146.499 133.828 146.233 133.18 145.729L133.954 144.792C134.403 145.156 134.882 145.352 135.391 145.38C135.897 145.41 136.407 145.242 136.922 144.876C137.382 144.549 137.692 144.173 137.851 143.747C138.01 143.321 138.036 142.866 137.927 142.382C137.815 141.9 137.583 141.411 137.23 140.915C136.88 140.416 136.496 140.035 136.077 139.771C135.656 139.509 135.218 139.383 134.763 139.394C134.306 139.407 133.847 139.576 133.387 139.904C132.873 140.269 132.546 140.696 132.408 141.183C132.269 141.676 132.297 142.193 132.492 142.734L131.352 143.157C131.089 142.379 131.07 141.625 131.294 140.896C131.515 140.168 132 139.538 132.749 139.006Z" fill="#05264A"/>
<path d="M127.653 142.628L131.083 149.825L126.486 152.017L126.016 151.032L129.569 149.338L128.607 147.319L125.653 148.727L125.184 147.743L128.138 146.335L127.078 144.111L123.524 145.805L123.055 144.82L127.653 142.628Z" fill="#05264A"/>
<path d="M116.715 147.283L118.059 155.141L117.028 155.317L113.169 149.894L111.347 156.289L110.305 156.467L108.962 148.614L110.042 148.429L110.961 153.805L112.579 147.99L113.097 147.902L116.56 152.847L115.64 147.467L116.715 147.283Z" fill="#05264A"/>
<path d="M103.811 148.837L103.747 152.13L106.353 156.859L105.002 156.833L103.135 153.447L101.138 156.759L99.7878 156.733L102.574 152.107L102.637 148.814L103.811 148.837Z" fill="#05264A"/>
<path d="M90.6918 146.983C91.4572 147.206 92.0606 147.563 92.5021 148.053C92.9426 148.547 93.2191 149.135 93.3316 149.817C93.4405 150.499 93.3799 151.234 93.1496 152.025C92.9193 152.815 92.5752 153.468 92.1172 153.984C91.6556 154.499 91.107 154.845 90.4713 155.021C89.8346 155.201 89.1336 155.179 88.3682 154.956C87.4859 154.699 86.821 154.263 86.3736 153.648C85.9226 153.032 85.6937 152.314 85.6869 151.493L86.902 151.519C86.8949 152.097 87.0382 152.594 87.3321 153.011C87.6224 153.426 88.0706 153.722 88.6765 153.898C89.2186 154.056 89.706 154.066 90.1387 153.927C90.5714 153.787 90.9439 153.525 91.2562 153.139C91.565 152.753 91.8046 152.267 91.975 151.682C92.1489 151.099 92.2095 150.561 92.1569 150.069C92.1007 149.576 91.9275 149.154 91.6373 148.804C91.3436 148.454 90.9257 148.199 90.3835 148.041C89.7776 147.865 89.2407 147.873 88.7727 148.068C88.3002 148.264 87.912 148.607 87.6083 149.095L86.5698 148.464C87.0166 147.775 87.5955 147.292 88.3068 147.015C89.0145 146.737 89.8095 146.726 90.6918 146.983Z" fill="#05264A"/>
<path d="M85.219 145.516L79.3378 151.489L77.8471 150.744L79.0929 142.455L80.1676 142.992L79.0504 150.566L78.7829 150.432L84.1443 144.979L85.219 145.516ZM83.2113 146.524L82.7263 147.495L79.0021 145.634L79.4871 144.663L83.2113 146.524Z" fill="#05264A"/>
<path d="M75.7785 140.322L71.7508 145.902L73.901 147.454L73.2626 148.338L68.0241 144.557L68.6624 143.673L70.8126 145.225L74.8403 139.645L75.7785 140.322Z" fill="#05264A"/>
<path d="M67.5432 140.661L67.1411 140.991C67.032 140.875 66.9211 140.813 66.8085 140.804C66.6958 140.796 66.5861 140.828 66.4793 140.9C66.3725 140.972 66.272 141.073 66.1779 141.202L66.6457 141.634L65.7408 142.614L64.8417 141.784L65.8218 140.722C66.1172 140.402 66.4173 140.232 66.7221 140.212C67.0242 140.19 67.2979 140.339 67.5432 140.661Z" fill="#05264A"/>
<path d="M66.3362 131.677C66.7039 132.115 66.9612 132.573 67.1079 133.053C67.2494 133.531 67.2763 134.003 67.1886 134.467C67.0956 134.93 66.884 135.358 66.5536 135.751L65.6378 134.944C65.9327 134.537 66.0602 134.098 66.0203 133.626C65.9776 133.156 65.7902 132.723 65.458 132.327C65.2516 132.081 65.0237 131.887 64.7742 131.744C64.5218 131.604 64.2713 131.533 64.0228 131.529C63.769 131.525 63.5403 131.609 63.3367 131.78C63.2265 131.872 63.1455 131.974 63.0939 132.085C63.04 132.193 63.0103 132.307 63.0051 132.427C62.9946 132.546 63.0071 132.673 63.0425 132.807C63.0728 132.941 63.1184 133.078 63.1793 133.22L64.0302 135.173C64.1131 135.363 64.1856 135.567 64.2478 135.785C64.3072 136.005 64.3346 136.23 64.3302 136.46C64.3206 136.69 64.264 136.918 64.1603 137.145C64.0538 137.374 63.8762 137.593 63.6274 137.802C63.2513 138.117 62.8526 138.288 62.4312 138.314C62.0045 138.34 61.586 138.243 61.1755 138.023C60.7622 137.807 60.3836 137.493 60.0396 137.083C59.6988 136.666 59.4627 136.235 59.3313 135.791C59.1974 135.345 59.1732 134.902 59.2587 134.465C59.339 134.026 59.5327 133.608 59.8399 133.211L60.7982 134.025C60.6048 134.26 60.4842 134.515 60.4365 134.792C60.3859 135.07 60.4011 135.346 60.4819 135.621C60.5598 135.897 60.6959 136.154 60.89 136.391C61.0741 136.622 61.2824 136.802 61.5149 136.929C61.745 137.054 61.9739 137.117 62.2017 137.119C62.4271 137.118 62.626 137.045 62.7985 136.9C62.9681 136.758 63.0637 136.593 63.0853 136.406C63.1069 136.22 63.0883 136.028 63.0295 135.832C62.9655 135.635 62.8928 135.448 62.8113 135.27L62.1828 133.875C62.1038 133.701 62.0234 133.496 61.9418 133.261C61.855 133.025 61.801 132.774 61.7798 132.508C61.7562 132.239 61.797 131.966 61.9024 131.69C62.005 131.416 62.2047 131.154 62.5016 130.905C62.8097 130.646 63.1334 130.481 63.4724 130.408C63.8086 130.338 64.1472 130.346 64.4883 130.43C64.8241 130.515 65.1502 130.665 65.4666 130.881C65.783 131.098 66.0729 131.363 66.3362 131.677Z" fill="#05264A"/>
<path d="M59.7671 122.604L53.3852 127.912L52.9004 126.801L57.7558 122.853L51.5641 123.724L51.072 122.609L55.9273 118.661L49.7306 119.534L49.2436 118.418L57.4782 117.357L57.9387 118.412L53.1575 122.364L59.3067 121.548L59.7671 122.604Z" fill="#05264A"/>
<path d="M56.0605 113.401L48.2722 115.104L47.1846 110.128L48.2501 109.895L49.0906 113.74L51.2757 113.263L50.577 110.066L51.6425 109.834L52.3412 113.03L54.748 112.504L53.9074 108.658L54.9729 108.426L56.0605 113.401Z" fill="#05264A"/>
<path d="M54.5277 105.916L46.5747 106.469L46.4945 105.314L53.3594 104.837L53.109 101.236L54.197 101.16L54.5277 105.916Z" fill="#05264A"/>
<path d="M54.1247 98.7975L46.1739 98.2138L46.2587 97.0598L53.1217 97.5637L53.386 93.9638L54.4737 94.0437L54.1247 98.7975Z" fill="#05264A"/>
<path d="M54.5978 92.0423L46.8434 90.1919L47.1158 89.0503L53.7888 86.6072L48.0269 85.2323L48.2993 84.0907L56.0537 85.941L55.7813 87.0827L49.1029 89.5244L54.8702 90.9007L54.5978 92.0423Z" fill="#05264A"/>
<path d="M56.8137 83.3107L49.483 80.1777L51.4846 75.4942L52.4875 75.9228L50.9406 79.5423L52.9972 80.4213L54.2831 77.4127L55.286 77.8413L54.0001 80.8499L56.2655 81.8181L57.8124 78.1985L58.8153 78.6271L56.8137 83.3107Z" fill="#05264A"/>
<path d="M61.4364 74.1273C61.1311 74.6111 60.7726 74.9959 60.361 75.2816C59.9482 75.5623 59.5075 75.7315 59.0389 75.7893C58.5692 75.842 58.0969 75.7709 57.6221 75.5759L58.1117 74.4578C58.5887 74.6148 59.0461 74.6024 59.4839 74.4204C59.9186 74.2365 60.2738 73.926 60.5496 73.4891C60.721 73.2175 60.8364 72.9412 60.896 72.6602C60.9524 72.3772 60.9443 72.1168 60.8718 71.879C60.7981 71.6361 60.649 71.4438 60.4242 71.3019C60.3025 71.2251 60.181 71.179 60.0598 71.1636C59.9406 71.1451 59.823 71.1516 59.707 71.1832C59.5899 71.2097 59.4729 71.2602 59.356 71.3348C59.238 71.4043 59.1208 71.4897 59.0046 71.5909L57.4039 72.9964C57.2476 73.1334 57.0753 73.2647 56.8869 73.3902C56.6955 73.5138 56.4895 73.6086 56.2689 73.6745C56.0472 73.7353 55.8126 73.7509 55.5651 73.7213C55.3145 73.6897 55.0518 73.5872 54.7771 73.4138C54.362 73.1518 54.0779 72.8241 53.9247 72.4307C53.7703 72.0321 53.735 71.6039 53.8188 71.1462C53.8995 70.6864 54.0826 70.2303 54.3682 69.7777C54.6621 69.326 55.0003 68.9699 55.3829 68.7094C55.7674 68.4459 56.1813 68.288 56.6244 68.236C57.0663 68.1789 57.5234 68.236 57.9957 68.4075L57.5117 69.5685C57.2293 69.4558 56.9494 69.4188 56.6718 69.4574C56.3912 69.4942 56.1325 69.5928 55.8959 69.7533C55.6562 69.9119 55.453 70.1197 55.2864 70.3768C55.1225 70.6226 55.0152 70.8756 54.9644 71.1359C54.9155 71.3932 54.925 71.6305 54.9929 71.8479C55.0628 72.0622 55.1929 72.2295 55.3833 72.3496C55.5706 72.4678 55.7564 72.5087 55.9409 72.4724C56.1253 72.436 56.3021 72.3599 56.4712 72.2441C56.6392 72.1231 56.7953 71.9969 56.9394 71.8653L58.0765 70.8415C58.2187 70.713 58.3893 70.5741 58.5883 70.4248C58.7862 70.2703 59.0088 70.1424 59.2561 70.041C59.5054 69.9364 59.7776 69.8922 60.073 69.9084C60.3651 69.9226 60.6751 70.0331 61.0028 70.2399C61.343 70.4547 61.5993 70.7124 61.7717 71.0133C61.941 71.3121 62.0372 71.6369 62.0603 71.9875C62.0822 72.3331 62.0384 72.6895 61.9288 73.0568C61.8192 73.424 61.6551 73.7809 61.4364 74.1273Z" fill="#05264A"/>
<path d="M66.3342 67.4007C65.9523 67.8267 65.5346 68.1461 65.0809 68.3591C64.627 68.5668 64.1643 68.66 63.6927 68.6387C63.2207 68.6121 62.767 68.4631 62.3314 68.1915L63.001 67.1709C63.445 67.4055 63.8981 67.4696 64.3601 67.3634C64.8194 67.2547 65.2215 67.008 65.5665 66.6232C65.7808 66.3841 65.9408 66.131 66.0465 65.8639C66.1494 65.5943 66.185 65.3362 66.1532 65.0896C66.1212 64.8379 66.0062 64.6233 65.8084 64.4459C65.7012 64.3498 65.5891 64.284 65.4722 64.2486C65.3577 64.2104 65.2407 64.1972 65.1211 64.2089C65.0012 64.2155 64.8774 64.2458 64.7497 64.2998C64.6217 64.3486 64.4919 64.4132 64.3604 64.4935L62.5474 65.6118C62.3704 65.7208 62.1785 65.8214 61.9718 65.9137C61.7624 66.0035 61.5435 66.0625 61.315 66.0907C61.0863 66.1136 60.8523 66.0898 60.6133 66.0192C60.3714 65.9461 60.1296 65.8012 59.8878 65.5844C59.5223 65.2567 59.2969 64.8861 59.2116 64.4726C59.126 64.0538 59.1627 63.6258 59.3218 63.1885C59.4782 62.7487 59.735 62.3296 60.0922 61.9311C60.4574 61.5348 60.8504 61.2402 61.2711 61.0474C61.6943 60.8518 62.1287 60.7653 62.5743 60.7881C63.0196 60.8056 63.4607 60.9384 63.8976 61.1863L63.2265 62.2501C62.9669 62.0918 62.6971 62.0085 62.417 62.0003C62.1341 61.9896 61.8626 62.0436 61.6025 62.1623C61.3396 62.2786 61.1046 62.4495 60.8973 62.6752C60.6947 62.8901 60.5466 63.1217 60.453 63.3698C60.3619 63.6153 60.3316 63.8508 60.3622 64.0766C60.3953 64.2995 60.4956 64.4862 60.6633 64.6365C60.8281 64.7843 61.0045 64.8557 61.1925 64.8506C61.3804 64.8456 61.5674 64.8001 61.7535 64.7142C61.9393 64.623 62.1143 64.5246 62.2784 64.4189L63.5706 63.5996C63.7323 63.4967 63.9237 63.3882 64.1449 63.2742C64.3657 63.155 64.6066 63.0661 64.8674 63.0074C65.1306 62.946 65.4064 62.948 65.6949 63.0132C65.9806 63.0761 66.2677 63.2368 66.5563 63.4955C66.8558 63.7641 67.0654 64.061 67.1851 64.3864C67.3021 64.7094 67.3426 65.0456 67.3068 65.3952C67.2707 65.7396 67.168 66.0837 66.9985 66.4275C66.8291 66.7713 66.6077 67.0957 66.3342 67.4007Z" fill="#05264A"/>
<circle cx="74.1178" cy="52.8974" r="1.73007" transform="rotate(180 74.1178 52.8974)" fill="#05264A"/>
<path d="M90.4308 51.8166L88.9971 43.9744L91.4532 43.5254C91.5258 43.5121 91.6605 43.4894 91.8572 43.4572C92.0576 43.4243 92.2508 43.404 92.437 43.3962C93.0645 43.3603 93.6202 43.4857 94.1041 43.7724C94.5917 44.0585 94.9936 44.4615 95.3101 44.9814C95.6258 45.4978 95.8445 46.0881 95.9659 46.7525C96.0881 47.4206 96.0931 48.0537 95.9811 48.652C95.8685 49.2467 95.6348 49.764 95.28 50.2041C94.9282 50.6398 94.4525 50.9519 93.8528 51.1404C93.6759 51.199 93.488 51.2483 93.289 51.2885C93.0936 51.3279 92.9596 51.3543 92.887 51.3676L90.4308 51.8166ZM91.3981 50.5198L92.6888 50.2838C92.8123 50.2613 92.9586 50.2308 93.1279 50.1923C93.2973 50.1538 93.4453 50.1118 93.572 50.0661C93.9574 49.9168 94.249 49.6853 94.4468 49.3715C94.6475 49.0534 94.7698 48.6859 94.8136 48.2689C94.8575 47.8519 94.8386 47.4201 94.7569 46.9736C94.6726 46.5125 94.5347 46.0968 94.3432 45.7266C94.1511 45.3528 93.9055 45.0562 93.6065 44.837C93.3105 44.6135 92.9598 44.5012 92.5544 44.5003C92.4191 44.4988 92.264 44.5122 92.089 44.5404C91.9171 44.5643 91.7712 44.5872 91.6514 44.6091L90.3607 44.8451L91.3981 50.5198Z" fill="#05264A"/>
<path d="M99.5119 50.386L99.1429 42.4224L100.299 42.3688L100.668 50.3324L99.5119 50.386Z" fill="#05264A"/>
<path d="M106.813 50.5245C106.243 50.4761 105.737 50.3348 105.294 50.1008C104.855 49.8634 104.502 49.55 104.235 49.1606C103.972 48.7678 103.818 48.3158 103.772 47.8045L104.99 47.7247C105.07 48.2205 105.292 48.6208 105.655 48.9258C106.018 49.2271 106.457 49.3997 106.972 49.4435C107.292 49.4707 107.59 49.446 107.867 49.3696C108.145 49.2894 108.372 49.1625 108.55 48.9887C108.732 48.8115 108.834 48.5906 108.856 48.3258C108.868 48.1824 108.854 48.0533 108.811 47.9386C108.773 47.8242 108.713 47.7228 108.632 47.6344C108.554 47.5426 108.456 47.462 108.336 47.3925C108.22 47.3197 108.09 47.2549 107.946 47.1983L105.962 46.4239C105.769 46.3481 105.573 46.2555 105.375 46.1461C105.177 46.033 104.998 45.8937 104.838 45.7282C104.682 45.5593 104.56 45.3582 104.472 45.1248C104.385 44.8877 104.355 44.6074 104.383 44.2837C104.424 43.7946 104.585 43.3915 104.863 43.0745C105.146 42.7541 105.51 42.5257 105.955 42.3895C106.4 42.2495 106.89 42.2023 107.423 42.2476C107.959 42.3006 108.431 42.4371 108.838 42.6569C109.249 42.8771 109.58 43.1719 109.83 43.5413C110.084 43.9074 110.244 44.3396 110.309 44.8378L109.055 44.9423C109.025 44.6397 108.929 44.3741 108.767 44.1455C108.606 43.9132 108.399 43.7289 108.148 43.5927C107.896 43.4528 107.618 43.3681 107.314 43.3384C107.02 43.3061 106.746 43.3272 106.491 43.4019C106.241 43.4768 106.034 43.5945 105.872 43.7548C105.714 43.9155 105.626 44.1079 105.607 44.3323C105.588 44.5529 105.637 44.7368 105.754 44.8838C105.871 45.0308 106.02 45.1527 106.201 45.2496C106.386 45.3431 106.569 45.4235 106.753 45.491L108.185 46.0295C108.364 46.0966 108.566 46.1842 108.79 46.2921C109.018 46.3968 109.234 46.5355 109.438 46.7084C109.646 46.8816 109.81 47.1031 109.932 47.3727C110.054 47.6386 110.098 47.9647 110.065 48.3508C110.031 48.7517 109.92 49.0978 109.733 49.3893C109.545 49.6771 109.301 49.9119 109 50.0938C108.704 50.2723 108.367 50.3974 107.991 50.4691C107.614 50.5408 107.222 50.5593 106.813 50.5245Z" fill="#05264A"/>
<path d="M115.247 51.8232C114.477 51.6147 113.867 51.2697 113.416 50.7881C112.967 50.3029 112.679 49.7202 112.554 49.04C112.432 48.3607 112.479 47.6239 112.694 46.8295C112.909 46.0351 113.241 45.3755 113.689 44.8507C114.141 44.3268 114.683 43.9709 115.315 43.7827C115.948 43.591 116.649 43.5995 117.419 43.808C118.306 44.0484 118.979 44.4717 119.438 45.0779C119.9 45.685 120.143 46.3989 120.165 47.2195L118.95 47.2171C118.946 46.6386 118.793 46.1441 118.492 45.7334C118.193 45.3238 117.74 45.0364 117.131 44.8713C116.586 44.7236 116.098 44.7235 115.668 44.8708C115.238 45.0181 114.871 45.2876 114.566 45.6791C114.264 46.0716 114.034 46.5617 113.875 47.1495C113.712 47.7363 113.662 48.2752 113.723 48.7662C113.789 49.2581 113.97 49.6762 114.267 50.0205C114.567 50.3657 114.99 50.6122 115.535 50.7599C116.144 50.925 116.681 50.906 117.145 50.7029C117.614 50.4972 117.995 50.1475 118.29 49.6537L119.34 50.2653C118.906 50.9623 118.337 51.456 117.631 51.7465C116.928 52.038 116.134 52.0636 115.247 51.8232Z" fill="#05264A"/>
<path d="M124.272 55.009C123.557 54.6553 123.026 54.1986 122.677 53.6388C122.33 53.0756 122.161 52.4482 122.169 51.7566C122.182 51.0666 122.37 50.3528 122.735 49.6152C123.101 48.8776 123.554 48.2948 124.095 47.8668C124.64 47.4404 125.24 47.1962 125.897 47.1342C126.555 47.0689 127.242 47.2131 127.956 47.5668C128.667 47.9189 129.197 48.3765 129.544 48.9396C129.896 49.501 130.066 50.1268 130.054 50.8168C130.042 51.5068 129.853 52.2206 129.488 52.9582C129.123 53.6958 128.67 54.2786 128.128 54.7066C127.587 55.1346 126.985 55.3804 126.324 55.4441C125.667 55.5061 124.983 55.3611 124.272 55.009ZM124.761 54.0217C125.264 54.2789 125.738 54.376 126.186 54.3132C126.638 54.2487 127.049 54.0531 127.421 53.7265C127.795 53.3965 128.116 52.9587 128.387 52.4129C128.657 51.8671 128.808 51.3491 128.841 50.8587C128.875 50.365 128.78 49.9206 128.556 49.5253C128.335 49.1317 127.972 48.808 127.468 48.5541C126.965 48.297 126.488 48.199 126.038 48.2602C125.591 48.323 125.181 48.5194 124.807 48.8494C124.434 49.1793 124.11 49.6164 123.837 50.1605C123.563 50.7046 123.409 51.2235 123.375 51.7172C123.342 52.2075 123.438 52.6503 123.663 53.0456C123.89 53.4425 124.256 53.7679 124.761 54.0217Z" fill="#05264A"/>
<path d="M131.141 58.6911L133.794 50.7392L134.76 51.453L132.494 58.2383L138.336 54.0943L139.302 54.8081L132.482 59.6812L131.141 58.6911Z" fill="#05264A"/>
<path d="M136.294 62.5988L141.992 57.0234L145.554 60.6639L144.775 61.4267L142.022 58.6132L140.423 60.1774L142.711 62.516L141.932 63.2788L139.644 60.9401L137.883 62.6631L140.635 65.4766L139.856 66.2393L136.294 62.5988Z" fill="#05264A"/>
<path d="M141.618 68.0876L148.133 63.4927L149.99 66.1257C150.035 66.1891 150.087 66.2696 150.147 66.3674C150.21 66.463 150.264 66.5584 150.308 66.6535C150.506 67.0558 150.595 67.4446 150.575 67.8199C150.558 68.1983 150.447 68.5498 150.242 68.8747C150.038 69.1996 149.761 69.4854 149.411 69.7321C148.892 70.098 148.35 70.2812 147.786 70.2817C147.225 70.2801 146.71 70.0468 146.243 69.5819L145.926 69.2293L144.624 67.3834L142.285 69.0331L141.618 68.0876ZM144.305 71.8969L146.05 68.7422L146.968 69.5245L145.068 72.9782L144.305 71.8969ZM145.52 66.7516L146.685 68.4029C146.727 68.4633 146.777 68.5275 146.834 68.5956C146.893 68.6668 146.954 68.7302 147.016 68.7859C147.197 68.9471 147.39 69.0439 147.593 69.0764C147.8 69.1068 148.001 69.0913 148.197 69.0298C148.393 68.9684 148.571 68.8812 148.731 68.7685C148.891 68.6558 149.031 68.5184 149.152 68.3565C149.275 68.1925 149.356 68.0092 149.394 67.8064C149.435 67.6016 149.409 67.3867 149.319 67.1618C149.29 67.0826 149.252 67.0033 149.205 66.9236C149.16 66.847 149.116 66.7785 149.073 66.7182L147.909 65.0668L145.52 66.7516Z" fill="#05264A"/>
<circle cx="156.08" cy="83.2533" r="1.73007" transform="rotate(180 156.08 83.2533)" fill="#05264A"/>
<path d="M90.2048 93.834L90.2048 113.636L110.007 113.636" stroke="#05264A" stroke-width="3.44038" stroke-miterlimit="10" stroke-linecap="round" stroke-linejoin="round"/>
<path d="M117.934 85.9067L90.482 113.359" stroke="#05264A" stroke-width="3.44038" stroke-miterlimit="10" stroke-linecap="round" stroke-linejoin="round"/>
</g>
<defs>
<filter id="filter0_d_1_712" x="0.619862" y="0.667486" width="205.76" height="205.741" filterUnits="userSpaceOnUse" color-interpolation-filters="sRGB">
<feFlood flood-opacity="0" result="BackgroundImageFix"/>
<feColorMatrix in="SourceAlpha" type="matrix" values="0 0 0 0 0 0 0 0 0 0 0 0 0 0 0 0 0 0 127 0" result="hardAlpha"/>
<feOffset dy="4.0475"/>
<feGaussianBlur stdDeviation="16.19"/>
<feComposite in2="hardAlpha" operator="out"/>
<feColorMatrix type="matrix" values="0 0 0 0 0.0469792 0 0 0 0 0.448296 0 0 0 0 0.503021 0 0 0 0.08 0"/>
<feBlend mode="normal" in2="BackgroundImageFix" result="effect1_dropShadow_1_712"/>
<feBlend mode="normal" in="SourceGraphic" in2="effect1_dropShadow_1_712" result="shape"/>
</filter>
<linearGradient id="paint0_linear_1_712" x1="32.9999" y1="29" x2="173.651" y2="169.651" gradientUnits="userSpaceOnUse">
<stop stop-color="#D0FAFB"/>
<stop offset="1" stop-color="#68F6F9"/>
</linearGradient>
<linearGradient id="paint1_linear_1_712" x1="189.841" y1="-1.35627" x2="25.9167" y2="154.978" gradientUnits="userSpaceOnUse">
<stop stop-color="white"/>
<stop offset="1" stop-color="#D8F5FE"/>
</linearGradient>
</defs>
</svg>
