<svg width="818" height="194" viewBox="0 0 818 194" fill="none" xmlns="http://www.w3.org/2000/svg">
<path d="M365.808 29.36C364.688 29.36 363.636 29.164 362.652 28.772C361.676 28.372 360.816 27.788 360.072 27.02C359.336 26.252 358.76 25.312 358.344 24.2C357.928 23.08 357.72 21.8 357.72 20.36C357.72 18.472 358.072 16.86 358.776 15.524C359.48 14.18 360.444 13.152 361.668 12.44C362.892 11.72 364.272 11.36 365.808 11.36C367.936 11.36 369.62 11.856 370.86 12.848C372.108 13.832 372.952 15.216 373.392 17L370.44 17.468C370.112 16.444 369.576 15.628 368.832 15.02C368.088 14.404 367.14 14.096 365.988 14.096C364.828 14.08 363.864 14.332 363.096 14.852C362.328 15.372 361.748 16.104 361.356 17.048C360.972 17.992 360.78 19.096 360.78 20.36C360.78 21.624 360.972 22.724 361.356 23.66C361.74 24.588 362.316 25.312 363.084 25.832C363.86 26.352 364.828 26.62 365.988 26.636C366.86 26.644 367.624 26.488 368.28 26.168C368.936 25.84 369.472 25.348 369.888 24.692C370.304 24.028 370.584 23.2 370.728 22.208H367.68V19.94H373.8C373.816 20.068 373.828 20.256 373.836 20.504C373.844 20.752 373.848 20.9 373.848 20.948C373.848 22.58 373.524 24.032 372.876 25.304C372.236 26.568 371.316 27.56 370.116 28.28C368.916 29 367.48 29.36 365.808 29.36ZM376.258 29V11.72H383.398C383.566 11.72 383.782 11.728 384.046 11.744C384.31 11.752 384.554 11.776 384.778 11.816C385.778 11.968 386.602 12.3 387.25 12.812C387.906 13.324 388.39 13.972 388.702 14.756C389.022 15.532 389.182 16.396 389.182 17.348C389.182 18.756 388.826 19.968 388.114 20.984C387.402 21.992 386.31 22.616 384.838 22.856L383.602 22.964H379.15V29H376.258ZM386.182 29L382.774 21.968L385.714 21.32L389.458 29H386.182ZM379.15 20.264H383.278C383.438 20.264 383.618 20.256 383.818 20.24C384.018 20.224 384.202 20.192 384.37 20.144C384.85 20.024 385.226 19.812 385.498 19.508C385.778 19.204 385.974 18.86 386.086 18.476C386.206 18.092 386.266 17.716 386.266 17.348C386.266 16.98 386.206 16.604 386.086 16.22C385.974 15.828 385.778 15.48 385.498 15.176C385.226 14.872 384.85 14.66 384.37 14.54C384.202 14.492 384.018 14.464 383.818 14.456C383.618 14.44 383.438 14.432 383.278 14.432H379.15V20.264ZM392.102 29V11.72H403.262V14.432H394.994V18.692H401.822V21.404H394.994V26.288H403.262V29H392.102ZM406.141 29V11.72H417.301V14.432H409.033V18.692H415.861V21.404H409.033V26.288H417.301V29H406.141ZM420.18 29V11.72H423.108L431.124 23.9V11.72H434.052V29H431.124L423.108 16.82V29H420.18Z" fill="#078C34"/>
<path d="M170.546 71.586L168.594 64.7804L160.129 56.596L163.37 55.6669L169.088 61.1935L170.995 53.4814L174.237 52.5523L171.409 63.9737L173.361 70.7792L170.546 71.586ZM180.613 68.7006L175.848 52.0905L186.576 49.0156L187.324 51.6225L179.376 53.9006L180.55 57.9954L187.114 56.1141L187.862 58.7209L181.298 60.6023L182.645 65.2969L190.593 63.0188L191.341 65.6257L180.613 68.7006ZM194.339 64.7663L189.574 48.1562L192.354 47.3594L196.371 61.3626L203.708 59.2597L204.456 61.8666L194.339 64.7663ZM206.641 61.2403L201.876 44.6303L204.656 43.8334L208.673 57.8366L216.009 55.7338L216.757 58.3407L206.641 61.2403ZM225.385 56.2421C223.724 56.7183 222.198 56.7646 220.806 56.3812C219.412 55.9902 218.21 55.2363 217.199 54.1197C216.195 53.0008 215.448 51.584 214.956 49.8692C214.464 48.1543 214.347 46.5567 214.604 45.0764C214.87 43.5939 215.491 42.3214 216.468 41.2591C217.443 40.1892 218.761 39.4161 220.422 38.94C222.083 38.4639 223.61 38.4213 225.004 38.8124C226.404 39.1936 227.605 39.9436 228.609 41.0625C229.62 42.1791 230.371 43.5948 230.863 45.3097C231.355 47.0245 231.468 48.6232 231.203 50.1057C230.945 51.5861 230.325 52.8623 229.342 53.9345C228.365 54.9968 227.046 55.766 225.385 56.2421ZM224.634 53.6238C225.751 53.3118 226.608 52.8001 227.202 52.0887C227.805 51.375 228.161 50.5116 228.27 49.4984C228.386 48.483 228.27 47.3678 227.921 46.1528C227.573 44.9378 227.082 43.9383 226.45 43.1543C225.822 42.3604 225.064 41.8204 224.175 41.5344C223.293 41.2461 222.292 41.2541 221.173 41.5584C220.056 41.8703 219.2 42.382 218.605 43.0934C218.01 43.8049 217.654 44.6683 217.538 45.6837C217.429 46.6969 217.549 47.811 217.897 49.026C218.246 50.241 218.734 51.2455 219.361 52.0394C219.986 52.8256 220.739 53.3628 221.621 53.6511C222.51 53.9371 223.515 53.928 224.634 53.6238ZM238.35 52.1516L228.729 36.9335L231.647 36.097L238.399 47.1443L238.264 34.2255L241.175 33.366L247.927 44.4132L247.785 31.4714L250.704 30.6349L250.624 48.6336L247.878 49.4206L241.087 38.5843L241.095 51.3647L238.35 52.1516Z" fill="#FFDF24"/>
<path d="M13.9614 142.296L5.31709 127.333L11.5015 123.765C11.6471 123.681 11.8382 123.58 12.0748 123.462C12.3075 123.337 12.5308 123.236 12.7449 123.159C13.6871 122.79 14.5669 122.666 15.3843 122.786C16.2086 122.901 16.952 123.22 17.6145 123.743C18.2798 124.255 18.8506 124.923 19.3269 125.748C20.0312 126.967 20.3292 128.194 20.2207 129.43C20.1082 130.658 19.4745 131.744 18.3196 132.688L17.303 133.399L13.4469 135.624L16.4664 140.85L13.9614 142.296ZM22.5573 137.336L16.0876 132.95L18.31 130.92L25.3948 135.699L22.5573 137.336ZM12.0962 133.286L15.6717 131.223C15.8103 131.143 15.9622 131.046 16.1275 130.932C16.2927 130.819 16.4361 130.699 16.5576 130.574C16.9133 130.23 17.1329 129.858 17.2164 129.459C17.3069 129.056 17.3046 128.66 17.2095 128.272C17.1213 127.879 16.9852 127.524 16.8011 127.205C16.617 126.886 16.377 126.591 16.0809 126.318C15.7878 126.035 15.444 125.831 15.0494 125.708C14.6617 125.581 14.23 125.585 13.7542 125.721C13.5846 125.764 13.4113 125.831 13.234 125.924C13.0528 126.01 12.8929 126.093 12.7543 126.173L9.17873 128.236L12.0962 133.286ZM27.6848 134.378L19.0405 119.415L28.7069 113.838L30.0636 116.186L22.9021 120.318L25.0332 124.007L30.9474 120.595L32.304 122.943L26.3898 126.355L28.8331 130.584L35.9946 126.452L37.3512 128.801L27.6848 134.378ZM39.845 127.362L31.2007 112.399L35.9715 109.647C36.0963 109.575 36.3443 109.436 36.7155 109.231C37.0937 109.022 37.468 108.839 37.8385 108.68C39.1115 108.149 40.3569 107.994 41.5748 108.215C42.7955 108.425 43.9254 108.941 44.9644 109.764C46.0034 110.587 46.8891 111.632 47.6215 112.9C48.3538 114.168 48.8168 115.457 49.0105 116.767C49.2041 118.078 49.0887 119.318 48.6643 120.486C48.2428 121.644 47.4837 122.641 46.3868 123.477C46.0713 123.714 45.7284 123.944 45.3582 124.167C44.988 124.39 44.7406 124.537 44.6158 124.609L39.845 127.362ZM41.0288 123.534L43.2532 122.25C43.461 122.131 43.7204 121.972 44.0311 121.774C44.3488 121.572 44.6183 121.375 44.8398 121.183C45.4705 120.643 45.8636 119.996 46.0189 119.242C46.1743 118.487 46.1498 117.693 45.9454 116.86C45.748 116.022 45.4232 115.212 44.971 114.429C44.5028 113.619 43.9551 112.919 43.3281 112.329C42.7011 111.74 42.0223 111.332 41.2918 111.107C40.5682 110.878 39.8219 110.898 39.0529 111.166C38.7714 111.255 38.4658 111.389 38.1362 111.57C37.8094 111.74 37.5421 111.885 37.3342 112.005L35.1099 113.289L41.0288 123.534Z" fill="#B90000"/>
<path d="M553.546 51.4937L558.31 34.8836L564.897 36.7715C566.02 37.0934 566.874 37.5836 567.459 38.2423C568.054 38.8955 568.424 39.6216 568.569 40.4206C568.722 41.2218 568.692 41.9953 568.478 42.7412C568.215 43.6563 567.773 44.3702 567.152 44.8828C566.538 45.3976 565.826 45.6596 565.016 45.6688L565.182 45.0921C566.159 45.6302 566.809 46.3533 567.131 47.2612C567.461 48.1713 567.488 49.1069 567.213 50.0682C566.93 51.0525 566.495 51.8597 565.906 52.4899C565.317 53.1202 564.591 53.536 563.726 53.7374C562.868 53.9411 561.893 53.8864 560.801 53.5734L553.546 51.4937ZM557.111 49.682L561.207 50.8558C561.691 50.9947 562.153 51.0231 562.593 50.9411C563.035 50.8513 563.414 50.6605 563.731 50.3684C564.057 50.0709 564.291 49.6761 564.433 49.184C564.561 48.738 564.579 48.3105 564.488 47.9017C564.398 47.4929 564.197 47.1317 563.888 46.8183C563.58 46.4972 563.169 46.2628 562.654 46.1151L558.478 44.9182L557.111 49.682ZM559.222 42.3229L562.96 43.3941C563.36 43.5087 563.74 43.5343 564.099 43.4709C564.458 43.4075 564.773 43.2523 565.044 43.0053C565.315 42.7583 565.513 42.4156 565.639 41.9773C565.804 41.4006 565.757 40.867 565.498 40.3767C565.24 39.8864 564.779 39.5465 564.118 39.3569L560.381 38.2857L559.222 42.3229ZM568.331 55.7315L573.096 39.1214L575.876 39.9183L571.859 53.9215L579.195 56.0244L578.448 58.6312L568.331 55.7315ZM586.993 61.4551C585.67 61.076 584.582 60.4729 583.729 59.6458C582.884 58.821 582.317 57.8387 582.028 56.699C581.747 55.5614 581.795 54.3352 582.172 53.0202L585.16 42.6043L587.981 43.388L585.006 53.7578C584.828 54.3807 584.772 54.9679 584.838 55.5196C584.912 56.0735 585.08 56.5752 585.343 57.0249C585.607 57.4668 585.948 57.8435 586.367 58.1548C586.785 58.4661 587.244 58.6934 587.744 58.8367C588.259 58.9844 588.773 59.0359 589.285 58.9913C589.807 58.9412 590.298 58.7988 590.756 58.564C591.217 58.3216 591.622 57.984 591.97 57.5514C592.319 57.1188 592.582 56.5949 592.758 55.9797L595.733 45.6099L598.548 46.4167L595.553 56.8556C595.176 58.1706 594.563 59.2348 593.713 60.0483C592.872 60.864 591.87 61.3966 590.708 61.6462C589.554 61.8979 588.316 61.8342 586.993 61.4551ZM597.007 63.9507L601.771 47.3406L612.499 50.4156L611.752 53.0224L603.804 50.7443L602.629 54.8392L609.193 56.7205L608.445 59.3274L601.881 57.446L600.534 62.1407L608.482 64.4188L607.735 67.0256L597.007 63.9507Z" fill="#0A66A1"/>
<path d="M727.106 110.453C725.609 109.589 724.515 108.524 723.824 107.257C723.137 105.983 722.844 104.594 722.945 103.092C723.054 101.593 723.554 100.071 724.446 98.5266C725.338 96.9818 726.407 95.7879 727.651 94.9451C728.902 94.1062 730.249 93.6691 731.693 93.6337C733.14 93.5914 734.612 94.0022 736.108 94.8659C737.605 95.7296 738.697 96.7984 739.384 98.0724C740.082 99.3433 740.377 100.728 740.268 102.227C740.167 103.729 739.671 105.253 738.778 106.798C737.886 108.343 736.814 109.535 735.563 110.374C734.319 111.216 732.969 111.657 731.515 111.695C730.072 111.731 728.602 111.316 727.106 110.453ZM728.468 108.094C729.469 108.681 730.432 108.941 731.357 108.874C732.289 108.812 733.158 108.468 733.962 107.843C734.774 107.221 735.496 106.363 736.128 105.268C736.76 104.174 737.139 103.127 737.263 102.127C737.399 101.125 737.261 100.205 736.849 99.3665C736.444 98.5323 735.743 97.8184 734.746 97.2247C733.745 96.6379 732.782 96.3778 731.857 96.4442C730.932 96.5106 730.063 96.8545 729.252 97.476C728.447 98.1015 727.728 98.9616 727.096 100.056C726.464 101.151 726.08 102.199 725.945 103.202C725.813 104.197 725.95 105.112 726.355 105.946C726.767 106.784 727.471 107.5 728.468 108.094ZM736.526 115.474L745.169 100.51L751.353 104.079C751.498 104.163 751.681 104.278 751.902 104.424C752.126 104.563 752.326 104.705 752.5 104.852C753.29 105.484 753.838 106.183 754.143 106.95C754.455 107.721 754.55 108.524 754.428 109.359C754.317 110.191 754.023 111.019 753.547 111.844C752.843 113.063 751.929 113.935 750.804 114.458C749.683 114.975 748.425 114.97 747.03 114.442L745.906 113.918L742.05 111.692L739.031 116.919L736.526 115.474ZM745.121 120.434L745.687 112.641L748.557 113.55L747.959 122.072L745.121 120.434ZM743.4 109.354L746.975 111.418C747.114 111.498 747.274 111.581 747.455 111.667C747.636 111.753 747.812 111.817 747.981 111.86C748.457 111.996 748.889 112 749.276 111.873C749.671 111.749 750.013 111.55 750.302 111.273C750.598 111 750.838 110.705 751.022 110.386C751.206 110.067 751.342 109.712 751.43 109.319C751.529 108.924 751.533 108.525 751.443 108.121C751.359 107.722 751.14 107.351 750.784 107.007C750.663 106.881 750.517 106.765 750.348 106.658C750.183 106.544 750.031 106.448 749.892 106.368L746.317 104.304L743.4 109.354ZM749.209 122.793L762.57 110.553L766.239 112.67L762.315 130.357L759.738 128.869L763.21 112.973L763.771 113.297L751.787 124.281L749.209 122.793ZM753.711 121.069L755.062 118.731L762.919 123.265L761.569 125.603L753.711 121.069ZM764.194 131.441L772.837 116.478L775.373 117.941L776.224 132.495L782.316 121.948L784.852 123.412L776.209 138.375L773.673 136.912L772.822 122.358L766.73 132.905L764.194 131.441ZM785.108 143.927C784.138 143.367 783.325 142.671 782.669 141.84C782.023 141.006 781.571 140.07 781.31 139.033C781.057 138 781.028 136.898 781.224 135.727C781.424 134.55 781.884 133.337 782.604 132.09C783.549 130.455 784.66 129.236 785.938 128.431C787.22 127.619 788.569 127.21 789.985 127.206C791.405 127.194 792.78 127.572 794.111 128.34C795.954 129.403 797.164 130.675 797.742 132.153C798.331 133.629 798.37 135.25 797.859 137.014L795.068 135.944C795.296 134.893 795.24 133.919 794.899 133.021C794.563 132.115 793.896 131.375 792.898 130.799C791.902 130.205 790.941 129.942 790.015 130.008C789.09 130.074 788.222 130.418 787.41 131.04C786.605 131.665 785.887 132.525 785.255 133.62C784.622 134.714 784.238 135.763 784.103 136.765C783.971 137.761 784.108 138.676 784.513 139.51C784.925 140.348 785.63 141.064 786.626 141.658C787.378 142.1 788.117 142.347 788.845 142.398C789.578 142.442 790.288 142.284 790.976 141.924C791.669 141.557 792.325 140.98 792.946 140.193L790.306 138.669L791.441 136.705L796.741 139.764C796.691 139.883 796.608 140.052 796.491 140.271C796.373 140.489 796.303 140.619 796.279 140.661C795.463 142.074 794.456 143.17 793.258 143.947C792.072 144.722 790.779 145.121 789.379 145.145C787.98 145.168 786.556 144.762 785.108 143.927ZM794.339 148.838L802.982 133.875L812.648 139.453L811.291 141.802L804.13 137.669L801.999 141.358L807.913 144.771L806.557 147.119L800.643 143.706L798.2 147.935L805.361 152.068L804.005 154.416L794.339 148.838Z" fill="#FB740A"/>
<path d="M7.99622 188C135.298 102.89 453.885 -19.2216 786.301 188" stroke="url(#paint0_linear_1_810)" stroke-width="12" stroke-linecap="round"/>
<path d="M240.937 96.93C240.937 106.31 233.329 113.917 223.942 113.917C214.555 113.917 206.947 106.31 206.947 96.93C206.947 87.5497 214.555 79.9434 223.942 79.9434C233.329 79.9434 240.937 87.5497 240.937 96.93Z" fill="#FFDF24" stroke="white" stroke-width="6"/>
<path d="M586.851 96.93C586.851 106.31 579.243 113.917 569.856 113.917C560.469 113.917 552.861 106.31 552.861 96.93C552.861 87.5497 560.469 79.9434 569.856 79.9434C579.243 79.9434 586.851 87.5497 586.851 96.93Z" fill="#0A66A1" stroke="white" stroke-width="6"/>
<path d="M67.9805 160.888C67.9805 170.268 60.3727 177.874 50.9855 177.874C41.5982 177.874 33.9905 170.268 33.9905 160.888C33.9905 151.507 41.5982 143.901 50.9855 143.901C60.3727 143.901 67.9805 151.507 67.9805 160.888Z" fill="#B90000" stroke="white" stroke-width="6"/>
<path d="M759.807 160.888C759.807 170.268 752.2 177.874 742.812 177.874C733.425 177.874 725.817 170.268 725.817 160.888C725.817 151.507 733.425 143.901 742.812 143.901C752.2 143.901 759.807 151.507 759.807 160.888Z" fill="#FB740A" stroke="white" stroke-width="6"/>
<circle cx="397" cy="68.5421" r="14.9286" fill="white"/>
<path d="M386.41 100.099L386.41 100.099C389.383 102.958 393.187 104.382 396.991 104.382C400.797 104.382 404.596 102.957 407.533 100.106L407.54 100.099C416.485 91.5015 425.787 78.3959 422.331 63.1549C419.262 49.6587 407.503 43.5089 396.991 43.5089H396.991H396.991H396.991H396.991H396.991H396.991H396.991H396.991H396.991H396.991H396.991H396.991H396.991H396.991H396.991H396.991H396.991H396.991H396.991H396.991H396.991H396.991H396.991H396.991H396.991H396.991H396.991H396.99H396.99H396.99H396.99H396.99H396.99H396.99H396.99H396.99H396.99H396.99H396.99H396.99H396.99H396.99H396.99H396.99H396.99H396.99H396.99H396.99H396.99H396.99H396.99H396.99H396.99H396.99H396.99H396.99H396.99H396.99H396.99H396.99H396.99H396.99H396.99H396.99H396.99H396.99H396.99H396.99H396.99H396.99H396.99H396.99H396.99H396.99H396.99H396.99H396.989H396.989H396.989H396.989H396.989H396.989H396.989H396.989H396.989H396.989H396.989H396.989H396.989H396.989H396.989H396.989H396.989H396.989H396.989H396.989H396.989H396.989H396.989H396.989H396.989H396.989H396.989H396.989H396.989H396.989H396.989H396.989H396.989H396.989H396.988H396.988H396.988H396.988H396.988H396.988H396.988H396.988H396.988H396.988H396.988H396.988H396.988H396.988H396.988H396.988H396.988H396.988H396.988H396.988H396.988H396.988H396.988H396.988H396.988H396.988H396.987H396.987H396.987H396.987H396.987H396.987H396.987H396.987H396.987H396.987H396.987H396.987H396.987H396.987H396.987H396.987H396.987H396.987H396.987H396.987H396.987H396.987H396.986H396.986H396.986H396.986H396.986H396.986H396.986H396.986H396.986H396.986H396.986H396.986H396.986H396.986H396.986H396.986H396.986H396.986H396.985H396.985H396.985H396.985H396.985H396.985H396.985H396.985H396.985H396.985H396.985H396.985H396.985H396.985H396.985H396.985H396.985H396.984H396.984H396.984H396.984H396.984H396.984H396.984H396.984H396.984H396.984H396.984H396.984H396.984H396.984H396.983H396.983H396.983H396.983H396.983H396.983H396.983H396.983H396.983H396.983H396.983H396.983H396.983H396.983H396.982H396.982H396.982H396.982H396.982H396.982H396.982H396.982H396.982H396.982H396.982H396.982H396.981H396.981H396.981H396.981H396.981H396.981H396.981H396.981H396.981H396.981H396.981H396.981H396.98H396.98H396.98H396.98H396.98H396.98H396.98H396.98H396.98H396.98H396.98H396.979H396.979H396.979H396.979H396.979H396.979H396.979H396.979H396.979H396.979H396.978H396.978H396.978H396.978H396.978H396.978H396.978H396.978H396.978H396.978H396.977H396.977H396.977H396.977H396.977H396.977H396.977H396.977H396.977H396.976H396.976H396.976H396.976H396.976H396.976H396.976H396.976H396.976H396.975H396.975H396.975H396.975H396.975H396.975H396.975H396.975H396.975H396.974H396.974H396.974H396.974H396.974H396.974H396.974H396.974H396.973H396.973H396.973H396.973H396.973H396.973H396.973H396.973H396.972H396.972H396.972H396.972H396.972H396.972H396.972H396.971H396.971H396.971H396.971H396.971H396.971H396.971H396.971H396.97H396.97H396.97H396.97H396.97H396.97H396.97H396.969H396.969H396.969H396.969H396.969H396.969H396.968H396.968H396.968H396.968H396.968H396.968H396.968H396.967H396.967H396.967H396.967H396.967H396.967H396.967H396.966H396.966H396.966H396.966H396.966H396.966H396.965H396.965H396.965H396.965H396.965H396.965H396.964H396.964H396.964H396.964H396.964H396.964H396.963H396.963H396.963H396.963H396.963H396.963H396.962H396.962H396.962H396.962H396.962H396.962H396.961H396.961H396.961H396.961H396.961H396.96H396.96H396.96H396.96H396.96H396.96H396.959C386.474 43.5089 374.688 49.6311 371.62 63.1222L386.41 100.099ZM386.41 100.099C377.466 91.5027 368.163 78.3653 371.62 63.1232L386.41 100.099ZM385.019 68.5975C385.019 75.2092 390.379 80.5659 396.991 80.5659C403.603 80.5659 408.964 75.2092 408.964 68.5975C408.964 61.9859 403.603 56.6292 396.991 56.6292C390.379 56.6292 385.019 61.9859 385.019 68.5975Z" fill="#078C34" stroke="white" stroke-width="4"/>
<defs>
<linearGradient id="paint0_linear_1_810" x1="7.99622" y1="197.863" x2="786.801" y2="187.861" gradientUnits="userSpaceOnUse">
<stop stop-color="#B70000"/>
<stop offset="0.270833" stop-color="#FFDF24"/>
<stop offset="0.520833" stop-color="#078C34"/>
<stop offset="0.729167" stop-color="#0A66A1"/>
<stop offset="1" stop-color="#FE7B27"/>
</linearGradient>
</defs>
</svg>
