<svg width="24" height="24" viewBox="0 0 24 24" fill="none" xmlns="http://www.w3.org/2000/svg">
<path d="M9.88305 22C9.45374 21.9349 9.01792 21.899 8.59602 21.7996C6.20833 21.2371 4.3447 19.0967 4.04652 16.5969C3.6491 13.2608 5.8383 10.255 9.06665 9.70295C9.70791 9.59336 10.5486 9.59591 10.9565 9.71175V12.9835C10.7956 12.9517 10.6447 12.914 10.4918 12.8926C8.68808 12.6283 7.13858 14.0573 7.19785 15.9287C7.24478 17.4064 8.39821 18.6257 9.86823 18.7496C11.27 18.8685 12.6116 17.8169 12.8689 16.3865C12.9103 16.1365 12.9296 15.8831 12.9266 15.6294C12.9323 11.1836 12.9355 6.73767 12.9363 2.29168C12.9363 2.19437 12.9452 2.0973 12.95 2H16.0919C16.1608 4.76921 18.1587 6.88833 20.8203 7.00417C20.9835 7.01135 21.0013 7.07831 20.9999 7.21592C20.9961 8.15999 20.9979 9.10384 20.9979 10.0477V10.2562C19.1745 10.2478 17.5625 9.67074 16.0948 8.54759C16.0948 8.65184 16.0948 8.72065 16.0948 8.78945C16.1011 11.0745 16.1067 13.3595 16.1116 15.6442C16.1117 15.963 16.0933 16.2815 16.0566 16.598C15.76 19.1585 13.8003 21.3383 11.3439 21.8404C10.9871 21.9134 10.6224 21.9479 10.2616 22H9.88305Z" fill="white"/>
</svg>
