<svg width="19" height="14" viewBox="0 0 19 14" fill="none" xmlns="http://www.w3.org/2000/svg">
<path d="M18.5676 2.19053C18.3495 1.32829 17.7069 0.649214 16.891 0.41876C15.4121 0 9.48194 0 9.48194 0C9.48194 0 3.5518 0 2.07288 0.41876C1.25697 0.64925 0.614369 1.32829 0.396269 2.19053C0 3.75339 0 7.01415 0 7.01415C0 7.01415 0 10.2749 0.396269 11.8378C0.614369 12.7 1.25697 13.3508 2.07288 13.5812C3.5518 14 9.48194 14 9.48194 14C9.48194 14 15.4121 14 16.891 13.5812C17.7069 13.3508 18.3495 12.7 18.5676 11.8378C18.9639 10.2749 18.9639 7.01415 18.9639 7.01415C18.9639 7.01415 18.9639 3.75339 18.5676 2.19053ZM7.54244 9.97467V4.05362L12.4989 7.01422L7.54244 9.97467Z" fill="white"/>
</svg>
